# xmcd
#
# Track frame offsets: 
#        150
#        17643
#        33199
#        54301
#        75873
#        103421
#        120740
#        140686
#
# Disc length: 2587 seconds
#
# Revision: 0
# Processed by: cddbd v1.5.2PL0 Copyright (c) Steve Scherf et al.
# Submitted via: ExactAudioCopy v1.0b4
#
DISCID=5e0a1908
DTITLE=Los Toros - Power Trio
DYEAR=2012
DGENRE=Blues, Blues Rock
TTITLE0=Steppin' Out
TTITLE1=Why Not
TTITLE2=Miracles
TTITLE3=Surfer (Valerie's Theme)
TTITLE4=Angels
TTITLE5=Overcast Sky
TTITLE6=Alexis Boogie
TTITLE7=Free Bulls
EXTD=
EXTT0=
EXTT1=
EXTT2=
EXTT3=
EXTT4=
EXTT5=
EXTT6=
EXTT7=
PLAYORDER=
